<?xml version="1.0" encoding="UTF-8" standalone="no"?>
<!-- Created with Inkscape (http://www.inkscape.org/) -->

<svg
   xmlns:dc="http://purl.org/dc/elements/1.1/"
   xmlns:cc="http://creativecommons.org/ns#"
   xmlns:rdf="http://www.w3.org/1999/02/22-rdf-syntax-ns#"
   xmlns:svg="http://www.w3.org/2000/svg"
   xmlns="http://www.w3.org/2000/svg"
   xmlns:sodipodi="http://sodipodi.sourceforge.net/DTD/sodipodi-0.dtd"
   xmlns:inkscape="http://www.inkscape.org/namespaces/inkscape"
   width="210mm"
   height="297mm"
   viewBox="0 0 210 297"
   version="1.1"
   id="svg8"
   sodipodi:docname="apple.svg"
   inkscape:version="0.92.4 (33fec40, 2019-01-16)">
  <defs
     id="defs2" />
  <sodipodi:namedview
     id="base"
     pagecolor="#ffffff"
     bordercolor="#666666"
     borderopacity="1.0"
     inkscape:pageopacity="0.0"
     inkscape:pageshadow="2"
     inkscape:zoom="1.1473643"
     inkscape:cx="688.30828"
     inkscape:cy="709.97495"
     inkscape:document-units="mm"
     inkscape:current-layer="layer1"
     showgrid="false"
     inkscape:window-width="1920"
     inkscape:window-height="1053"
     inkscape:window-x="0"
     inkscape:window-y="27"
     inkscape:window-maximized="1" />
  <metadata
     id="metadata5">
    <rdf:RDF>
      <cc:Work
         rdf:about="">
        <dc:format>image/svg+xml</dc:format>
        <dc:type
           rdf:resource="http://purl.org/dc/dcmitype/StillImage" />
        <dc:title></dc:title>
      </cc:Work>
    </rdf:RDF>
  </metadata>
  <g
     inkscape:label="Layer 1"
     inkscape:groupmode="layer"
     id="layer1">
    <path
       style="fill:none;stroke:#000000;stroke-width:0.26458332px;stroke-linecap:butt;stroke-linejoin:miter;stroke-opacity:1"
       d="m 176.40975,31.808861 c 0,0 -13.60545,-1.383604 -18.44808,-0.4612 -4.84262,0.922404 -1.8448,0.691803 -1.8448,0.691803 0,0 10.83825,1.614208 12.45245,22.829496 0.61457,8.077282 0.6918,14.989064 0.6918,14.989064 0,0 0,-5.303822 -21.21529,-6.687428 -21.21529,-1.383605 -35.97375,7.609833 -45.42839,13.605458 -9.45464,5.995627 -17.064474,25.366106 -17.064474,25.366106 0,0 -8.532237,37.58797 16.833874,62.26227 25.36611,24.67431 49.5792,19.83169 49.5792,19.83169 0,0 10.37706,-2.30602 12.91367,-6.22623 2.53661,-3.92022 5.99562,2.53661 5.99562,2.53661 l 1.38361,-5.76502 4.61202,5.99562 v -6.45683 l -0.2306,0.2306"
       id="path62"
       inkscape:connector-curvature="0"
       sodipodi:nodetypes="cscscsscsccccccc" />
  </g>
</svg>
